<?xml version="1.0" standalone="no"?><!DOCTYPE svg PUBLIC "-//W3C//DTD SVG 1.1//EN" "http://www.w3.org/Graphics/SVG/1.1/DTD/svg11.dtd"><svg t="1511164100347" class="icon" style="" viewBox="0 0 1024 1024" version="1.1" xmlns="http://www.w3.org/2000/svg" p-id="1883" xmlns:xlink="http://www.w3.org/1999/xlink" width="200" height="200"><defs><style type="text/css"></style></defs><path d="M524.658255 997.776799H511.86645c-6.395903 20.466888-30.060742 26.223201-50.527631 26.223201s-37.096235-12.152215-36.456645-39.015006v-58.202714a48.60886 48.60886 0 0 1 46.690089-48.60886 44.131728 44.131728 0 0 1 42.852548 47.96927v19.827298h10.233444a447.713184 447.713184 0 1 0-447.713184-492.484502c20.466888 10.233444 9.593854 31.339923 10.233445 56.283943v76.750831c0 35.177464 0 63.959026-37.735826 63.959027S0.19424 624.256086 0.19424 589.078622V511.6882c0-27.502381 3.197951-51.167221 27.502381-60.761075A498.880405 498.880405 0 1 1 524.658255 997.776799zM339.177079 495.698443A44.131728 44.131728 0 0 1 296.324532 447.729173v-58.202713a49.24845 49.24845 0 0 1 46.690089-48.60886 44.771318 44.771318 0 0 1 42.852547 47.969269L383.948397 447.729173a48.60886 48.60886 0 0 1-44.771318 47.96927zM654.495079 447.729173v-58.202713a49.24845 49.24845 0 0 1 49.24845-48.60886 44.131728 44.131728 0 0 1 42.852547 47.969269v58.202714a48.60886 48.60886 0 0 1-46.690089 48.60886 44.131728 44.131728 0 0 1-45.410908-47.96927z m87.623865 243.0443c-249.440202 191.877079-421.489983 33.898284-462.423759-12.152215a570.514514 570.514514 0 0 0 462.423759 12.152215z" p-id="1884" fill="#ffffff"></path></svg>